<svg version="1.2" baseProfile="tiny-ps" xmlns="http://www.w3.org/2000/svg" viewBox="0 0 60 61" width="60" height="61">
	<title>Новый проект</title>
	<style>
		tspan { white-space:pre }
	</style>
	<path id="Д" fill="#08fdd8" aria-label="д"  d="M15.99 39.78L15.99 19.34L26.21 9.12L36.43 9.12L36.43 39.78ZM10.95 60.22L10.95 50L41.54 50L41.54 60.22L51.76 60.22L51.76 39.78L46.57 39.78L46.57 -1.1L21.1 -1.1L5.77 14.23L5.77 39.78L0.73 39.78L0.73 60.22Z" />
	<path id="Д " fill="#ff2253" aria-label="Д"  d="M23.99 39.78L23.99 19.34L34.21 9.12L44.43 9.12L44.43 39.78ZM18.95 60.22L18.95 50L49.54 50L49.54 60.22L59.76 60.22L59.76 39.78L54.57 39.78L54.57 -1.1L29.1 -1.1L13.77 14.23L13.77 39.78L8.73 39.78L8.73 60.22Z" />
</svg>